<?xml version="1.0" encoding="UTF-8"?>
<svg xmlns="http://www.w3.org/2000/svg" xmlns:xlink="http://www.w3.org/1999/xlink" width="64pt" height="64pt" viewBox="0 0 64 64" version="1.1">
<g id="surface1">
<path style=" stroke:none;fill-rule:nonzero;fill:rgb(81.960784%,89.019608%,93.333333%);fill-opacity:1;" d="M 5.121094 0.550781 L 58.878906 0.550781 C 61.707031 0.550781 64 2.84375 64 5.671875 L 64 17.5 C 64 20.328125 61.707031 22.621094 58.878906 22.621094 L 5.121094 22.621094 C 2.292969 22.621094 0 20.328125 0 17.5 L 0 5.671875 C 0 2.84375 2.292969 0.550781 5.121094 0.550781 Z M 5.121094 0.550781 "/>
<path style=" stroke:none;fill-rule:nonzero;fill:rgb(53.333333%,81.568627%,93.72549%);fill-opacity:1;" d="M 5.417969 39.171875 C 3.847656 39.175781 2.34375 38.554688 1.238281 37.441406 C -0.410156 35.789062 -0.40625 33.113281 1.246094 31.464844 C 2.015625 30.699219 3.050781 30.257812 4.136719 30.234375 L 4.226562 30.234375 C 5.347656 30.230469 6.417969 30.679688 7.207031 31.472656 L 7.292969 31.558594 C 7.71875 31.992188 7.710938 32.691406 7.277344 33.117188 C 6.851562 33.535156 6.171875 33.539062 5.742188 33.125 L 5.652344 33.039062 C 5.261719 32.648438 4.734375 32.433594 4.183594 32.441406 C 3.070312 32.464844 2.183594 33.382812 2.207031 34.496094 C 2.214844 35.019531 2.429688 35.515625 2.796875 35.886719 C 4.261719 37.285156 6.570312 37.285156 8.039062 35.886719 C 9.191406 34.738281 9.835938 33.179688 9.832031 31.554688 L 9.832031 26.820312 C 9.832031 26.210938 10.324219 25.714844 10.933594 25.714844 C 11.542969 25.714844 12.039062 26.210938 12.039062 26.820312 L 12.039062 31.550781 C 12.046875 33.761719 11.167969 35.882812 9.601562 37.441406 C 8.492188 38.554688 6.988281 39.175781 5.417969 39.171875 Z M 5.417969 39.171875 "/>
<path style=" stroke:none;fill-rule:nonzero;fill:rgb(53.333333%,81.568627%,93.72549%);fill-opacity:1;" d="M 14.34375 43.585938 C 13.734375 43.585938 13.242188 43.09375 13.242188 42.484375 C 13.242188 42.191406 13.359375 41.910156 13.566406 41.703125 C 16.191406 39.089844 17.664062 35.53125 17.65625 31.828125 L 17.65625 28.136719 C 17.65625 27.527344 18.148438 27.035156 18.757812 27.035156 C 19.367188 27.035156 19.863281 27.527344 19.863281 28.136719 L 19.863281 31.828125 C 19.875 36.117188 18.167969 40.238281 15.125 43.261719 C 14.917969 43.46875 14.636719 43.585938 14.34375 43.585938 Z M 14.34375 43.585938 "/>
<path style=" stroke:none;fill-rule:nonzero;fill:rgb(53.333333%,81.568627%,93.72549%);fill-opacity:1;" d="M 26.484375 45.792969 C 25.875 45.792969 25.378906 45.300781 25.378906 44.691406 L 25.378906 33.65625 C 25.378906 33.046875 25.875 32.550781 26.484375 32.550781 C 27.09375 32.550781 27.585938 33.046875 27.585938 33.65625 L 27.585938 44.691406 C 27.585938 45.300781 27.09375 45.792969 26.484375 45.792969 Z M 26.484375 45.792969 "/>
<path style=" stroke:none;fill-rule:nonzero;fill:rgb(53.333333%,81.568627%,93.72549%);fill-opacity:1;" d="M 26.484375 30.34375 C 25.875 30.34375 25.378906 29.851562 25.378906 29.242188 L 25.378906 27.035156 C 25.378906 26.425781 25.875 25.929688 26.484375 25.929688 C 27.09375 25.929688 27.585938 26.425781 27.585938 27.035156 L 27.585938 29.242188 C 27.585938 29.851562 27.09375 30.34375 26.484375 30.34375 Z M 26.484375 30.34375 "/>
<path style=" stroke:none;fill-rule:nonzero;fill:rgb(53.333333%,81.568627%,93.72549%);fill-opacity:1;" d="M 58.582031 39.171875 C 57.011719 39.175781 55.507812 38.554688 54.398438 37.441406 C 52.832031 35.882812 51.953125 33.761719 51.960938 31.550781 L 51.960938 26.820312 C 51.960938 26.210938 52.453125 25.714844 53.0625 25.714844 C 53.671875 25.714844 54.167969 26.210938 54.167969 26.820312 L 54.167969 31.550781 C 54.160156 33.175781 54.808594 34.734375 55.960938 35.878906 C 57.425781 37.28125 59.734375 37.28125 61.199219 35.878906 C 61.988281 35.089844 61.984375 33.8125 61.195312 33.027344 C 60.828125 32.664062 60.335938 32.453125 59.816406 32.441406 C 59.269531 32.433594 58.738281 32.648438 58.347656 33.03125 L 58.253906 33.125 C 57.828125 33.5625 57.128906 33.570312 56.695312 33.140625 C 56.257812 32.714844 56.25 32.015625 56.675781 31.582031 C 56.683594 31.574219 56.695312 31.566406 56.703125 31.554688 L 56.792969 31.46875 C 57.609375 30.65625 58.714844 30.214844 59.863281 30.234375 C 62.195312 30.28125 64.046875 32.214844 64 34.546875 C 63.976562 35.636719 63.535156 36.675781 62.761719 37.445312 C 61.65625 38.554688 60.148438 39.175781 58.582031 39.171875 Z M 58.582031 39.171875 "/>
<path style=" stroke:none;fill-rule:nonzero;fill:rgb(53.333333%,81.568627%,93.72549%);fill-opacity:1;" d="M 49.65625 43.585938 C 49.363281 43.585938 49.082031 43.46875 48.875 43.261719 C 45.832031 40.238281 44.125 36.117188 44.136719 31.828125 L 44.136719 28.136719 C 44.136719 27.527344 44.632812 27.035156 45.242188 27.035156 C 45.851562 27.035156 46.34375 27.527344 46.34375 28.136719 L 46.34375 31.828125 C 46.335938 35.53125 47.808594 39.089844 50.433594 41.703125 C 50.867188 42.132812 50.867188 42.832031 50.433594 43.261719 C 50.226562 43.46875 49.949219 43.585938 49.65625 43.585938 Z M 49.65625 43.585938 "/>
<path style=" stroke:none;fill-rule:nonzero;fill:rgb(53.333333%,81.568627%,93.72549%);fill-opacity:1;" d="M 37.515625 45.792969 C 36.90625 45.792969 36.414062 45.300781 36.414062 44.691406 L 36.414062 33.65625 C 36.414062 33.046875 36.90625 32.550781 37.515625 32.550781 C 38.125 32.550781 38.621094 33.046875 38.621094 33.65625 L 38.621094 44.691406 C 38.621094 45.300781 38.125 45.792969 37.515625 45.792969 Z M 37.515625 45.792969 "/>
<path style=" stroke:none;fill-rule:nonzero;fill:rgb(53.333333%,81.568627%,93.72549%);fill-opacity:1;" d="M 37.515625 30.34375 C 36.90625 30.34375 36.414062 29.851562 36.414062 29.242188 L 36.414062 27.035156 C 36.414062 26.425781 36.90625 25.929688 37.515625 25.929688 C 38.125 25.929688 38.621094 26.425781 38.621094 27.035156 L 38.621094 29.242188 C 38.621094 29.851562 38.125 30.34375 37.515625 30.34375 Z M 37.515625 30.34375 "/>
<path style=" stroke:none;fill-rule:nonzero;fill:rgb(49.019608%,56.078431%,62.352941%);fill-opacity:1;" d="M 58.484375 19.308594 L 5.515625 19.308594 C 4.90625 19.308594 4.414062 18.816406 4.414062 18.207031 C 4.414062 17.597656 4.90625 17.101562 5.515625 17.101562 L 58.484375 17.101562 C 59.09375 17.101562 59.585938 17.597656 59.585938 18.207031 C 59.585938 18.816406 59.09375 19.308594 58.484375 19.308594 Z M 58.484375 19.308594 "/>
<path style=" stroke:none;fill-rule:nonzero;fill:rgb(49.019608%,56.078431%,62.352941%);fill-opacity:1;" d="M 58.484375 14.898438 L 5.515625 14.898438 C 4.90625 14.898438 4.414062 14.402344 4.414062 13.792969 C 4.414062 13.183594 4.90625 12.691406 5.515625 12.691406 L 58.484375 12.691406 C 59.09375 12.691406 59.585938 13.183594 59.585938 13.792969 C 59.585938 14.402344 59.09375 14.898438 58.484375 14.898438 Z M 58.484375 14.898438 "/>
<path style=" stroke:none;fill-rule:nonzero;fill:rgb(100%,74.901961%,25.490196%);fill-opacity:1;" d="M 52.964844 4.964844 L 57.378906 4.964844 C 58.597656 4.964844 59.585938 5.953125 59.585938 7.171875 C 59.585938 8.390625 58.597656 9.378906 57.378906 9.378906 L 52.964844 9.378906 C 51.746094 9.378906 50.757812 8.390625 50.757812 7.171875 C 50.757812 5.953125 51.746094 4.964844 52.964844 4.964844 Z M 52.964844 4.964844 "/>
<path style=" stroke:none;fill-rule:nonzero;fill:rgb(30.980392%,72.156863%,41.568627%);fill-opacity:1;" d="M 45.242188 8.277344 L 43.035156 8.277344 C 42.425781 8.277344 41.929688 7.78125 41.929688 7.171875 C 41.929688 6.5625 42.425781 6.070312 43.035156 6.070312 L 45.242188 6.070312 C 45.851562 6.070312 46.34375 6.5625 46.34375 7.171875 C 46.34375 7.78125 45.851562 8.277344 45.242188 8.277344 Z M 45.242188 8.277344 "/>
<path style=" stroke:none;fill-rule:nonzero;fill:rgb(16.862745%,70.196078%,80.784314%);fill-opacity:1;" d="M 38.621094 8.277344 L 36.414062 8.277344 C 35.804688 8.277344 35.308594 7.78125 35.308594 7.171875 C 35.308594 6.5625 35.804688 6.070312 36.414062 6.070312 L 38.621094 6.070312 C 39.230469 6.070312 39.722656 6.5625 39.722656 7.171875 C 39.722656 7.78125 39.230469 8.277344 38.621094 8.277344 Z M 38.621094 8.277344 "/>
<path style=" stroke:none;fill-rule:nonzero;fill:rgb(53.333333%,81.568627%,93.72549%);fill-opacity:1;" d="M 51.863281 59.035156 C 50.035156 59.035156 48.550781 57.550781 48.550781 55.722656 C 48.550781 53.894531 50.035156 52.414062 51.863281 52.414062 C 53.691406 52.414062 55.171875 53.894531 55.171875 55.722656 C 55.171875 57.550781 53.691406 59.035156 51.863281 59.035156 Z M 51.863281 54.621094 C 51.253906 54.621094 50.757812 55.113281 50.757812 55.722656 C 50.757812 56.332031 51.253906 56.828125 51.863281 56.828125 C 52.472656 56.828125 52.964844 56.332031 52.964844 55.722656 C 52.964844 55.113281 52.472656 54.621094 51.863281 54.621094 Z M 51.863281 54.621094 "/>
<path style=" stroke:none;fill-rule:nonzero;fill:rgb(53.333333%,81.568627%,93.72549%);fill-opacity:1;" d="M 54.070312 63.449219 C 53.777344 63.449219 53.496094 63.332031 53.289062 63.125 L 51.863281 61.699219 L 50.433594 63.125 C 49.996094 63.546875 49.296875 63.535156 48.875 63.097656 C 48.460938 62.671875 48.460938 61.992188 48.875 61.566406 L 51.863281 58.578125 L 54.847656 61.566406 C 55.28125 61.996094 55.28125 62.695312 54.847656 63.125 C 54.640625 63.332031 54.363281 63.449219 54.070312 63.449219 Z M 54.070312 63.449219 "/>
<path style=" stroke:none;fill-rule:nonzero;fill:rgb(53.333333%,81.568627%,93.72549%);fill-opacity:1;" d="M 51.863281 61.242188 C 51.253906 61.242188 50.757812 60.746094 50.757812 60.136719 L 50.757812 57.929688 C 50.757812 57.320312 51.253906 56.828125 51.863281 56.828125 C 52.472656 56.828125 52.964844 57.320312 52.964844 57.929688 L 52.964844 60.136719 C 52.964844 60.746094 52.472656 61.242188 51.863281 61.242188 Z M 51.863281 61.242188 "/>
<path style=" stroke:none;fill-rule:nonzero;fill:rgb(53.333333%,81.568627%,93.72549%);fill-opacity:1;" d="M 51.863281 52.871094 L 48.875 49.882812 C 48.453125 49.445312 48.464844 48.746094 48.902344 48.324219 C 49.328125 47.910156 50.007812 47.910156 50.433594 48.324219 L 51.863281 49.75 L 53.289062 48.324219 C 53.726562 47.898438 54.425781 47.910156 54.847656 48.351562 C 55.261719 48.777344 55.261719 49.457031 54.847656 49.882812 Z M 51.863281 52.871094 "/>
<path style=" stroke:none;fill-rule:nonzero;fill:rgb(53.333333%,81.568627%,93.72549%);fill-opacity:1;" d="M 51.863281 54.621094 C 51.253906 54.621094 50.757812 54.125 50.757812 53.515625 L 50.757812 51.308594 C 50.757812 50.699219 51.253906 50.207031 51.863281 50.207031 C 52.472656 50.207031 52.964844 50.699219 52.964844 51.308594 L 52.964844 53.515625 C 52.964844 54.125 52.472656 54.621094 51.863281 54.621094 Z M 51.863281 54.621094 "/>
<path style=" stroke:none;fill-rule:nonzero;fill:rgb(53.333333%,81.568627%,93.72549%);fill-opacity:1;" d="M 58.484375 59.035156 C 58.191406 59.035156 57.910156 58.917969 57.703125 58.710938 L 54.714844 55.722656 L 57.703125 52.738281 C 58.140625 52.3125 58.839844 52.324219 59.261719 52.765625 C 59.675781 53.191406 59.675781 53.871094 59.261719 54.296875 L 57.835938 55.722656 L 59.261719 57.152344 C 59.695312 57.582031 59.695312 58.28125 59.261719 58.710938 C 59.054688 58.917969 58.773438 59.035156 58.484375 59.035156 Z M 58.484375 59.035156 "/>
<path style=" stroke:none;fill-rule:nonzero;fill:rgb(53.333333%,81.568627%,93.72549%);fill-opacity:1;" d="M 56.277344 56.828125 L 54.070312 56.828125 C 53.460938 56.828125 52.964844 56.332031 52.964844 55.722656 C 52.964844 55.113281 53.460938 54.621094 54.070312 54.621094 L 56.277344 54.621094 C 56.886719 54.621094 57.378906 55.113281 57.378906 55.722656 C 57.378906 56.332031 56.886719 56.828125 56.277344 56.828125 Z M 56.277344 56.828125 "/>
<path style=" stroke:none;fill-rule:nonzero;fill:rgb(53.333333%,81.568627%,93.72549%);fill-opacity:1;" d="M 45.242188 59.035156 C 44.632812 59.035156 44.136719 58.539062 44.136719 57.929688 C 44.136719 57.636719 44.253906 57.359375 44.460938 57.152344 L 45.886719 55.722656 L 44.460938 54.296875 C 44.039062 53.859375 44.050781 53.160156 44.488281 52.738281 C 44.914062 52.324219 45.59375 52.324219 46.023438 52.738281 L 49.007812 55.722656 L 46.023438 58.710938 C 45.816406 58.917969 45.535156 59.035156 45.242188 59.035156 Z M 45.242188 59.035156 "/>
<path style=" stroke:none;fill-rule:nonzero;fill:rgb(53.333333%,81.568627%,93.72549%);fill-opacity:1;" d="M 49.65625 56.828125 L 47.449219 56.828125 C 46.839844 56.828125 46.34375 56.332031 46.34375 55.722656 C 46.34375 55.113281 46.839844 54.621094 47.449219 54.621094 L 49.65625 54.621094 C 50.265625 54.621094 50.757812 55.113281 50.757812 55.722656 C 50.757812 56.332031 50.265625 56.828125 49.65625 56.828125 Z M 49.65625 56.828125 "/>
<path style=" stroke:none;fill-rule:nonzero;fill:rgb(53.333333%,81.568627%,93.72549%);fill-opacity:1;" d="M 18.757812 56.828125 C 16.929688 56.828125 15.449219 55.34375 15.449219 53.515625 C 15.449219 51.6875 16.929688 50.207031 18.757812 50.207031 C 20.585938 50.207031 22.070312 51.6875 22.070312 53.515625 C 22.070312 55.34375 20.585938 56.828125 18.757812 56.828125 Z M 18.757812 52.414062 C 18.148438 52.414062 17.65625 52.90625 17.65625 53.515625 C 17.65625 54.125 18.148438 54.621094 18.757812 54.621094 C 19.367188 54.621094 19.863281 54.125 19.863281 53.515625 C 19.863281 52.90625 19.367188 52.414062 18.757812 52.414062 Z M 18.757812 52.414062 "/>
<path style=" stroke:none;fill-rule:nonzero;fill:rgb(53.333333%,81.568627%,93.72549%);fill-opacity:1;" d="M 20.964844 61.242188 C 20.671875 61.242188 20.390625 61.125 20.183594 60.917969 L 18.757812 59.492188 L 17.332031 60.917969 C 16.894531 61.339844 16.195312 61.328125 15.773438 60.890625 C 15.359375 60.464844 15.359375 59.785156 15.773438 59.359375 L 18.757812 56.371094 L 21.746094 59.359375 C 22.175781 59.789062 22.175781 60.488281 21.746094 60.917969 C 21.539062 61.125 21.257812 61.242188 20.964844 61.242188 Z M 20.964844 61.242188 "/>
<path style=" stroke:none;fill-rule:nonzero;fill:rgb(53.333333%,81.568627%,93.72549%);fill-opacity:1;" d="M 18.757812 59.035156 C 18.148438 59.035156 17.65625 58.539062 17.65625 57.929688 L 17.65625 55.722656 C 17.65625 55.113281 18.148438 54.621094 18.757812 54.621094 C 19.367188 54.621094 19.863281 55.113281 19.863281 55.722656 L 19.863281 57.929688 C 19.863281 58.539062 19.367188 59.035156 18.757812 59.035156 Z M 18.757812 59.035156 "/>
<path style=" stroke:none;fill-rule:nonzero;fill:rgb(53.333333%,81.568627%,93.72549%);fill-opacity:1;" d="M 18.757812 50.664062 L 15.773438 47.675781 C 15.347656 47.238281 15.359375 46.539062 15.796875 46.117188 C 16.226562 45.703125 16.902344 45.703125 17.332031 46.117188 L 18.757812 47.542969 L 20.183594 46.117188 C 20.625 45.691406 21.324219 45.707031 21.746094 46.144531 C 22.160156 46.570312 22.160156 47.25 21.746094 47.675781 Z M 18.757812 50.664062 "/>
<path style=" stroke:none;fill-rule:nonzero;fill:rgb(53.333333%,81.568627%,93.72549%);fill-opacity:1;" d="M 18.757812 52.414062 C 18.148438 52.414062 17.65625 51.917969 17.65625 51.308594 L 17.65625 49.101562 C 17.65625 48.492188 18.148438 48 18.757812 48 C 19.367188 48 19.863281 48.492188 19.863281 49.101562 L 19.863281 51.308594 C 19.863281 51.917969 19.367188 52.414062 18.757812 52.414062 Z M 18.757812 52.414062 "/>
<path style=" stroke:none;fill-rule:nonzero;fill:rgb(53.333333%,81.568627%,93.72549%);fill-opacity:1;" d="M 25.378906 56.828125 C 25.085938 56.828125 24.804688 56.710938 24.597656 56.503906 L 21.613281 53.515625 L 24.597656 50.53125 C 25.039062 50.105469 25.734375 50.117188 26.160156 50.558594 C 26.574219 50.984375 26.574219 51.664062 26.160156 52.089844 L 24.734375 53.515625 L 26.160156 54.945312 C 26.589844 55.375 26.589844 56.074219 26.160156 56.503906 C 25.953125 56.710938 25.671875 56.828125 25.378906 56.828125 Z M 25.378906 56.828125 "/>
<path style=" stroke:none;fill-rule:nonzero;fill:rgb(53.333333%,81.568627%,93.72549%);fill-opacity:1;" d="M 23.171875 54.621094 L 20.964844 54.621094 C 20.355469 54.621094 19.863281 54.125 19.863281 53.515625 C 19.863281 52.90625 20.355469 52.414062 20.964844 52.414062 L 23.171875 52.414062 C 23.78125 52.414062 24.277344 52.90625 24.277344 53.515625 C 24.277344 54.125 23.78125 54.621094 23.171875 54.621094 Z M 23.171875 54.621094 "/>
<path style=" stroke:none;fill-rule:nonzero;fill:rgb(53.333333%,81.568627%,93.72549%);fill-opacity:1;" d="M 12.136719 56.828125 C 11.527344 56.828125 11.035156 56.332031 11.035156 55.722656 C 11.035156 55.429688 11.152344 55.152344 11.359375 54.945312 L 12.785156 53.515625 L 11.359375 52.089844 C 10.933594 51.652344 10.945312 50.953125 11.386719 50.53125 C 11.8125 50.117188 12.492188 50.117188 12.917969 50.53125 L 15.90625 53.515625 L 12.917969 56.503906 C 12.710938 56.710938 12.429688 56.828125 12.136719 56.828125 Z M 12.136719 56.828125 "/>
<path style=" stroke:none;fill-rule:nonzero;fill:rgb(53.333333%,81.568627%,93.72549%);fill-opacity:1;" d="M 16.550781 54.621094 L 14.34375 54.621094 C 13.734375 54.621094 13.242188 54.125 13.242188 53.515625 C 13.242188 52.90625 13.734375 52.414062 14.34375 52.414062 L 16.550781 52.414062 C 17.160156 52.414062 17.65625 52.90625 17.65625 53.515625 C 17.65625 54.125 17.160156 54.621094 16.550781 54.621094 Z M 16.550781 54.621094 "/>
</g>
</svg>
