<?xml version="1.0" encoding="UTF-8"?>
<svg xmlns="http://www.w3.org/2000/svg" xmlns:xlink="http://www.w3.org/1999/xlink" width="64pt" height="64pt" viewBox="0 0 64 64" version="1.1">
<g id="surface1">
<path style=" stroke:none;fill-rule:nonzero;fill:rgb(89.019608%,89.411765%,88.627451%);fill-opacity:1;" d="M 13 29 L 13 59 L 16.800781 61 L 20.597656 59 L 24.398438 61 L 28.199219 59 L 32 61 L 35.796875 59 L 39.597656 61 L 43.398438 59 L 47.199219 61 L 51 59 L 51 29 Z M 13 29 "/>
<path style=" stroke:none;fill-rule:nonzero;fill:rgb(78.823529%,78.823529%,78.039216%);fill-opacity:1;" d="M 13 29 L 51 29 L 51 33 L 13 33 Z M 13 29 "/>
<path style=" stroke:none;fill-rule:nonzero;fill:rgb(0%,57.647059%,72.54902%);fill-opacity:1;" d="M 5 25 L 5 29 C 5 30.105469 5.894531 31 7 31 L 57 31 C 58.105469 31 59 30.105469 59 29 L 59 25 Z M 5 25 "/>
<path style=" stroke:none;fill-rule:nonzero;fill:rgb(6.27451%,48.627451%,59.607843%);fill-opacity:1;" d="M 5 25 L 59 25 L 59 29 L 5 29 Z M 5 25 "/>
<path style=" stroke:none;fill-rule:nonzero;fill:rgb(0%,57.647059%,72.54902%);fill-opacity:1;" d="M 8 3 L 56 3 C 58.761719 3 61 5.238281 61 8 L 61 25 C 61 26.105469 60.105469 27 59 27 L 5 27 C 3.894531 27 3 26.105469 3 25 L 3 8 C 3 5.238281 5.238281 3 8 3 Z M 8 3 "/>
<path style=" stroke:none;fill-rule:nonzero;fill:rgb(6.27451%,48.627451%,59.607843%);fill-opacity:1;" d="M 57 24 C 56.449219 24 56 23.550781 56 23 L 56 9 C 56 8.449219 55.550781 8 55 8 L 9 8 C 8.449219 8 8 8.449219 8 9 L 8 23 C 8 23.550781 7.550781 24 7 24 C 6.449219 24 6 23.550781 6 23 L 6 9 C 6 7.34375 7.34375 6 9 6 L 55 6 C 56.65625 6 58 7.34375 58 9 L 58 23 C 58 23.550781 57.550781 24 57 24 Z M 57 24 "/>
<path style=" stroke:none;fill-rule:nonzero;fill:rgb(89.019608%,89.411765%,88.627451%);fill-opacity:1;" d="M 32 11 C 33.105469 11 34 11.894531 34 13 L 34 21 C 34 22.105469 33.105469 23 32 23 C 30.894531 23 30 22.105469 30 21 L 30 13 C 30 11.894531 30.894531 11 32 11 Z M 32 11 "/>
<path style=" stroke:none;fill-rule:nonzero;fill:rgb(96.470588%,78.431373%,65.490196%);fill-opacity:1;" d="M 3.878906 50 L 5.878906 48 L 5.878906 39 C 5.878906 37.34375 7.222656 36 8.878906 36 L 13 36 L 13 39.878906 L 15.378906 37.5 C 16.207031 36.671875 17.550781 36.671875 18.378906 37.5 C 19.207031 38.328125 19.207031 39.671875 18.378906 40.5 L 13.878906 45 C 16.085938 47.210938 16.085938 50.789062 13.878906 53 L 8.878906 58 Z M 3.878906 50 "/>
<path style=" stroke:none;fill-rule:nonzero;fill:rgb(89.411765%,69.019608%,54.509804%);fill-opacity:1;" d="M 10.875 40.582031 L 11.582031 39.875 C 11.96875 39.484375 12.605469 39.484375 12.996094 39.875 C 13.382812 40.265625 13.382812 40.898438 12.996094 41.289062 L 12.289062 41.996094 C 11.898438 42.386719 11.265625 42.386719 10.875 41.996094 C 10.484375 41.605469 10.484375 40.972656 10.875 40.582031 Z M 10.875 40.582031 "/>
<path style=" stroke:none;fill-rule:nonzero;fill:rgb(96.470588%,78.431373%,65.490196%);fill-opacity:1;" d="M 60.121094 50 L 58.121094 48 L 58.121094 39 C 58.121094 37.34375 56.777344 36 55.121094 36 L 51 36 L 51 39.878906 L 48.621094 37.5 C 47.792969 36.671875 46.449219 36.671875 45.621094 37.5 C 44.792969 38.328125 44.792969 39.671875 45.621094 40.5 L 50.121094 45 C 47.914062 47.210938 47.914062 50.789062 50.121094 53 L 55.121094 58 Z M 60.121094 50 "/>
<path style=" stroke:none;fill-rule:nonzero;fill:rgb(89.411765%,69.019608%,54.509804%);fill-opacity:1;" d="M 50.992188 39.878906 C 51.378906 39.488281 52.015625 39.488281 52.40625 39.878906 L 53.109375 40.585938 C 53.5 40.976562 53.5 41.609375 53.109375 42 C 52.722656 42.390625 52.085938 42.390625 51.695312 42 L 50.992188 41.292969 C 50.601562 40.902344 50.601562 40.269531 50.992188 39.878906 Z M 50.992188 39.878906 "/>
</g>
</svg>
