<?xml version="1.0" encoding="UTF-8"?>
<svg xmlns="http://www.w3.org/2000/svg" xmlns:xlink="http://www.w3.org/1999/xlink" width="64pt" height="64pt" viewBox="0 0 64 64" version="1.1">
<g id="surface1">
<path style=" stroke:none;fill-rule:nonzero;fill:rgb(99.215686%,84.313725%,67.843137%);fill-opacity:1;" d="M 41.929688 6.621094 C 41.929688 10.277344 38.96875 13.242188 35.308594 13.242188 C 31.652344 13.242188 28.691406 10.277344 28.691406 6.621094 C 28.691406 2.964844 31.652344 0 35.308594 0 C 38.96875 0 41.929688 2.964844 41.929688 6.621094 Z M 41.929688 6.621094 "/>
<path style=" stroke:none;fill-rule:nonzero;fill:rgb(58.431373%,64.705882%,64.705882%);fill-opacity:1;" d="M 61.792969 23.171875 L 61.792969 38.621094 C 61.792969 39.230469 61.300781 39.722656 60.691406 39.722656 L 52.316406 39.722656 C 52.023438 39.722656 51.75 39.605469 51.542969 39.402344 L 39.855469 27.71875 C 38.785156 26.664062 38.570312 25.015625 39.339844 23.722656 C 39.914062 22.6875 41.011719 22.054688 42.195312 22.070312 L 60.691406 22.070312 C 61.300781 22.070312 61.792969 22.5625 61.792969 23.171875 Z M 61.792969 23.171875 "/>
<path style=" stroke:none;fill-rule:nonzero;fill:rgb(74.117647%,76.470588%,78.039216%);fill-opacity:1;" d="M 61.792969 23.171875 L 61.792969 35.308594 C 61.792969 35.917969 61.300781 36.414062 60.691406 36.414062 L 52.316406 36.414062 C 52.023438 36.410156 51.75 36.296875 51.542969 36.09375 L 39.855469 24.410156 C 39.652344 24.207031 39.476562 23.976562 39.339844 23.722656 C 39.914062 22.6875 41.011719 22.054688 42.195312 22.070312 L 60.691406 22.070312 C 61.300781 22.070312 61.792969 22.5625 61.792969 23.171875 Z M 61.792969 23.171875 "/>
<path style=" stroke:none;fill-rule:nonzero;fill:rgb(18.431373%,65.882353%,80%);fill-opacity:1;" d="M 47.449219 18.757812 C 47.449219 19.367188 46.953125 19.863281 46.34375 19.863281 C 45.734375 19.863281 45.242188 19.367188 45.242188 18.757812 C 45.242188 18.148438 45.734375 17.65625 46.34375 17.65625 C 46.953125 17.65625 47.449219 18.148438 47.449219 18.757812 Z M 47.449219 18.757812 "/>
<path style=" stroke:none;fill-rule:nonzero;fill:rgb(18.431373%,65.882353%,80%);fill-opacity:1;" d="M 50.757812 16.550781 C 50.757812 17.160156 50.265625 17.65625 49.65625 17.65625 C 49.046875 17.65625 48.550781 17.160156 48.550781 16.550781 C 48.550781 15.941406 49.046875 15.449219 49.65625 15.449219 C 50.265625 15.449219 50.757812 15.941406 50.757812 16.550781 Z M 50.757812 16.550781 "/>
<path style=" stroke:none;fill-rule:nonzero;fill:rgb(18.431373%,65.882353%,80%);fill-opacity:1;" d="M 54.070312 15.449219 C 54.070312 16.058594 53.574219 16.550781 52.964844 16.550781 C 52.355469 16.550781 51.863281 16.058594 51.863281 15.449219 C 51.863281 14.839844 52.355469 14.34375 52.964844 14.34375 C 53.574219 14.34375 54.070312 14.839844 54.070312 15.449219 Z M 54.070312 15.449219 "/>
<path style=" stroke:none;fill-rule:nonzero;fill:rgb(18.431373%,65.882353%,80%);fill-opacity:1;" d="M 57.378906 16.550781 C 57.378906 17.160156 56.886719 17.65625 56.277344 17.65625 C 55.667969 17.65625 55.171875 17.160156 55.171875 16.550781 C 55.171875 15.941406 55.667969 15.449219 56.277344 15.449219 C 56.886719 15.449219 57.378906 15.941406 57.378906 16.550781 Z M 57.378906 16.550781 "/>
<path style=" stroke:none;fill-rule:nonzero;fill:rgb(58.431373%,35.686275%,64.705882%);fill-opacity:1;" d="M 36.601562 31.085938 L 38.136719 32.707031 C 38.972656 33.542969 39.296875 34.765625 38.988281 35.90625 C 38.679688 37.050781 37.789062 37.941406 36.644531 38.246094 C 35.5 38.550781 34.28125 38.222656 33.445312 37.386719 L 26.296875 29.914062 C 25.710938 29.296875 25.382812 28.480469 25.378906 27.628906 L 25.378906 21.628906 C 25.378906 21.230469 25.167969 20.863281 24.824219 20.667969 C 24.476562 20.472656 24.054688 20.476562 23.714844 20.675781 L 11.574219 27.867188 C 11.238281 28.066406 11.035156 28.425781 11.035156 28.816406 L 11.035156 59.382812 C 11.074219 61.703125 9.363281 63.679688 7.0625 63.976562 C 5.820312 64.101562 4.585938 63.695312 3.660156 62.859375 C 2.734375 62.023438 2.207031 60.832031 2.207031 59.585938 L 2.207031 23.074219 C 2.207031 20.765625 3.410156 18.621094 5.382812 17.421875 L 6.808594 16.550781 L 20.867188 8.023438 C 22.15625 7.238281 23.707031 6.996094 25.171875 7.355469 C 26.640625 7.710938 27.90625 8.640625 28.691406 9.929688 L 30.464844 12.546875 C 31.464844 14.007812 32 15.738281 32 17.511719 L 32 25.777344 C 32 26.0625 32.109375 26.332031 32.300781 26.535156 Z M 36.601562 31.085938 "/>
<path style=" stroke:none;fill-rule:nonzero;fill:rgb(20.784314%,28.627451%,36.862745%);fill-opacity:1;" d="M 13.285156 26.847656 L 11.574219 27.863281 C 11.242188 28.0625 11.039062 28.421875 11.035156 28.8125 L 11.035156 59.375 C 11.074219 61.699219 9.363281 63.679688 7.0625 63.976562 C 5.820312 64.101562 4.585938 63.695312 3.660156 62.859375 C 2.734375 62.023438 2.207031 60.832031 2.207031 59.585938 L 2.207031 23.074219 C 2.207031 20.765625 3.414062 18.625 5.386719 17.421875 L 6.808594 16.550781 L 7.25 16.277344 Z M 13.285156 26.847656 "/>
</g>
</svg>
