<?xml version="1.0" encoding="UTF-8"?>
<svg xmlns="http://www.w3.org/2000/svg" xmlns:xlink="http://www.w3.org/1999/xlink" width="64pt" height="64pt" viewBox="0 0 64 64" version="1.1">
<g id="surface1">
<path style=" stroke:none;fill-rule:nonzero;fill:rgb(76.470588%,83.529412%,93.72549%);fill-opacity:1;" d="M 22.75 50.976562 L 13.386719 50.976562 C 12.316406 50.976562 11.449219 50.109375 11.449219 49.039062 L 11.449219 43.097656 L 24.6875 43.097656 L 24.6875 49.039062 C 24.6875 50.109375 23.820312 50.976562 22.75 50.976562 Z M 22.75 50.976562 "/>
<path style=" stroke:none;fill-rule:nonzero;fill:rgb(71.764706%,78.431373%,91.764706%);fill-opacity:1;" d="M 22.242188 43.097656 L 22.242188 49.042969 C 22.242188 50.109375 21.375 50.976562 20.304688 50.976562 L 22.75 50.976562 C 23.820312 50.976562 24.6875 50.109375 24.6875 49.042969 L 24.6875 43.097656 Z M 22.242188 43.097656 "/>
<path style=" stroke:none;fill-rule:nonzero;fill:rgb(21.176471%,36.862745%,49.019608%);fill-opacity:1;" d="M 59.359375 63.214844 L 59.359375 7.152344 C 59.359375 3.230469 56.179688 0.0507812 52.253906 0.0507812 L 43.210938 0.0507812 C 39.285156 0.0507812 36.105469 3.230469 36.105469 7.152344 L 36.105469 56.894531 C 36.105469 58.828125 34.539062 60.394531 32.605469 60.394531 L 23.371094 60.394531 C 21.4375 60.394531 19.871094 58.828125 19.871094 56.894531 L 19.871094 50.976562 L 16.265625 50.976562 L 16.265625 56.894531 C 16.265625 60.820312 19.445312 64 23.371094 64 L 32.605469 64 C 36.53125 64 39.710938 60.820312 39.710938 56.894531 L 39.710938 7.152344 C 39.710938 5.222656 41.277344 3.65625 43.210938 3.65625 L 52.253906 3.65625 C 54.1875 3.65625 55.753906 5.222656 55.753906 7.152344 L 55.753906 63.214844 C 55.753906 63.648438 56.105469 64 56.539062 64 L 58.574219 64 C 59.007812 64 59.359375 63.648438 59.359375 63.214844 Z M 59.359375 63.214844 "/>
<path style=" stroke:none;fill-rule:nonzero;fill:rgb(16.862745%,30.196078%,40%);fill-opacity:1;" d="M 16.265625 50.976562 L 19.871094 50.976562 L 19.871094 53.859375 L 16.265625 53.859375 Z M 16.265625 50.976562 "/>
<path style=" stroke:none;fill-rule:nonzero;fill:rgb(90.588235%,92.54902%,96.470588%);fill-opacity:1;" d="M 23.191406 46.753906 L 12.945312 46.753906 C 8.359375 46.753906 4.640625 43.035156 4.640625 38.445312 L 4.640625 20.339844 C 4.640625 19.945312 4.960938 19.625 5.355469 19.625 L 30.78125 19.625 C 31.179688 19.625 31.496094 19.945312 31.496094 20.339844 L 31.496094 38.445312 C 31.496094 43.035156 27.777344 46.753906 23.191406 46.753906 Z M 23.191406 46.753906 "/>
<path style=" stroke:none;fill-rule:nonzero;fill:rgb(84.705882%,88.627451%,94.509804%);fill-opacity:1;" d="M 30.78125 19.625 L 27.667969 19.625 C 28.066406 19.625 28.382812 19.945312 28.382812 20.339844 L 28.382812 38.445312 C 28.382812 43.035156 24.664062 46.753906 20.078125 46.753906 L 23.191406 46.753906 C 27.777344 46.753906 31.496094 43.035156 31.496094 38.445312 L 31.496094 20.339844 C 31.496094 19.945312 31.179688 19.625 30.78125 19.625 Z M 30.78125 19.625 "/>
<path style=" stroke:none;fill-rule:nonzero;fill:rgb(76.470588%,83.529412%,93.72549%);fill-opacity:1;" d="M 29.492188 19.625 L 6.644531 19.625 L 6.644531 16.996094 C 6.644531 16.222656 7.269531 15.597656 8.042969 15.597656 L 28.09375 15.597656 C 28.867188 15.597656 29.492188 16.222656 29.492188 16.996094 Z M 29.492188 19.625 "/>
<path style=" stroke:none;fill-rule:nonzero;fill:rgb(71.764706%,78.431373%,91.764706%);fill-opacity:1;" d="M 28.09375 15.597656 L 24.773438 15.597656 C 25.546875 15.597656 26.171875 16.222656 26.171875 16.996094 L 26.171875 19.625 L 29.492188 19.625 L 29.492188 16.996094 C 29.492188 16.222656 28.867188 15.597656 28.09375 15.597656 Z M 28.09375 15.597656 "/>
<path style=" stroke:none;fill-rule:nonzero;fill:rgb(91.764706%,69.411765%,30.196078%);fill-opacity:1;" d="M 14.285156 15.597656 L 10.671875 15.597656 L 10.671875 1.808594 C 10.671875 0.808594 11.480469 0 12.476562 0 C 13.476562 0 14.285156 0.808594 14.285156 1.808594 Z M 14.285156 15.597656 "/>
<path style=" stroke:none;fill-rule:nonzero;fill:rgb(91.764706%,69.411765%,30.196078%);fill-opacity:1;" d="M 25.46875 15.597656 L 21.851562 15.597656 L 21.851562 1.808594 C 21.851562 0.808594 22.660156 0 23.660156 0 C 24.65625 0 25.46875 0.808594 25.46875 1.808594 Z M 25.46875 15.597656 "/>
<path style=" stroke:none;fill-rule:nonzero;fill:rgb(89.411765%,58.431373%,25.882353%);fill-opacity:1;" d="M 10.671875 13.324219 L 14.285156 13.324219 L 14.285156 15.597656 L 10.671875 15.597656 Z M 10.671875 13.324219 "/>
<path style=" stroke:none;fill-rule:nonzero;fill:rgb(89.411765%,58.431373%,25.882353%);fill-opacity:1;" d="M 21.851562 13.324219 L 25.46875 13.324219 L 25.46875 15.597656 L 21.851562 15.597656 Z M 21.851562 13.324219 "/>
<path style=" stroke:none;fill-rule:nonzero;fill:rgb(84.705882%,88.627451%,94.509804%);fill-opacity:1;" d="M 24.171875 25.179688 L 11.964844 25.179688 C 11.429688 25.179688 11 24.75 11 24.214844 C 11 23.679688 11.429688 23.25 11.964844 23.25 L 24.171875 23.25 C 24.707031 23.25 25.136719 23.679688 25.136719 24.214844 C 25.136719 24.75 24.707031 25.179688 24.171875 25.179688 Z M 24.171875 25.179688 "/>
<path style=" stroke:none;fill-rule:nonzero;fill:rgb(84.705882%,88.627451%,94.509804%);fill-opacity:1;" d="M 22.242188 29.769531 L 13.894531 29.769531 C 13.363281 29.769531 12.929688 29.335938 12.929688 28.804688 C 12.929688 28.269531 13.363281 27.835938 13.894531 27.835938 L 22.242188 27.835938 C 22.773438 27.835938 23.207031 28.269531 23.207031 28.804688 C 23.207031 29.335938 22.773438 29.769531 22.242188 29.769531 Z M 22.242188 29.769531 "/>
</g>
</svg>
