<?xml version="1.0" encoding="UTF-8"?>
<svg xmlns="http://www.w3.org/2000/svg" xmlns:xlink="http://www.w3.org/1999/xlink" width="64pt" height="64pt" viewBox="0 0 64 64" version="1.1">
<g id="surface1">
<path style=" stroke:none;fill-rule:nonzero;fill:rgb(49.803922%,54.901961%,55.294118%);fill-opacity:1;" d="M 24.277344 49.65625 L 39.722656 49.65625 L 39.722656 61.792969 C 39.722656 63.011719 38.734375 64 37.515625 64 L 26.484375 64 C 25.265625 64 24.277344 63.011719 24.277344 61.792969 Z M 24.277344 49.65625 "/>
<path style=" stroke:none;fill-rule:nonzero;fill:rgb(94.117647%,76.862745%,9.803922%);fill-opacity:1;" d="M 52.964844 20.964844 C 52.972656 26.992188 50.367188 32.726562 45.828125 36.691406 C 42.605469 39.59375 40.785156 43.742188 40.828125 48.078125 L 40.828125 49.65625 C 40.828125 50.265625 40.332031 50.757812 39.722656 50.757812 L 24.277344 50.757812 C 23.667969 50.757812 23.171875 50.265625 23.171875 49.65625 L 23.171875 48.078125 C 23.214844 43.742188 21.394531 39.601562 18.171875 36.699219 C 14.699219 33.664062 12.328125 29.5625 11.433594 25.039062 C 11.164062 23.695312 11.03125 22.332031 11.035156 20.964844 L 11.035156 19.863281 C 11.035156 19.253906 11.527344 18.757812 12.136719 18.757812 L 18.757812 18.757812 L 19.121094 16.550781 L 19.707031 13.066406 C 19.792969 12.53125 20.257812 12.136719 20.800781 12.136719 L 27.585938 12.136719 L 27.144531 9.929688 L 26.582031 7.128906 C 26.515625 6.800781 26.605469 6.464844 26.824219 6.210938 L 31.65625 0.410156 C 31.875 0.144531 32.199219 -0.0078125 32.539062 0 C 43.90625 0.292969 52.96875 9.59375 52.964844 20.964844 Z M 52.964844 20.964844 "/>
<path style=" stroke:none;fill-rule:nonzero;fill:rgb(95.294118%,83.529412%,35.686275%);fill-opacity:1;" d="M 52.964844 20.964844 C 52.96875 22.332031 52.835938 23.695312 52.566406 25.039062 C 48.574219 32.707031 40.648438 37.519531 32 37.519531 C 23.351562 37.519531 15.425781 32.707031 11.433594 25.039062 C 11.164062 23.695312 11.03125 22.332031 11.035156 20.964844 L 11.035156 19.863281 C 11.035156 19.253906 11.527344 18.757812 12.136719 18.757812 L 18.757812 18.757812 L 19.121094 16.550781 L 19.707031 13.066406 C 19.792969 12.53125 20.257812 12.136719 20.800781 12.136719 L 27.585938 12.136719 L 27.144531 9.929688 L 26.582031 7.128906 C 26.515625 6.800781 26.605469 6.464844 26.824219 6.210938 L 31.65625 0.410156 C 31.875 0.144531 32.199219 -0.0078125 32.539062 0 C 43.90625 0.292969 52.96875 9.59375 52.964844 20.964844 Z M 52.964844 20.964844 "/>
<path style=" stroke:none;fill-rule:nonzero;fill:rgb(58.431373%,64.705882%,64.705882%);fill-opacity:1;" d="M 40.828125 56.277344 L 23.171875 56.277344 C 22.5625 56.277344 22.070312 55.78125 22.070312 55.171875 C 22.070312 54.5625 22.5625 54.070312 23.171875 54.070312 L 40.828125 54.070312 C 41.4375 54.070312 41.929688 54.5625 41.929688 55.171875 C 41.929688 55.78125 41.4375 56.277344 40.828125 56.277344 Z M 40.828125 56.277344 "/>
<path style=" stroke:none;fill-rule:nonzero;fill:rgb(58.431373%,64.705882%,64.705882%);fill-opacity:1;" d="M 40.828125 60.691406 L 23.171875 60.691406 C 22.5625 60.691406 22.070312 60.195312 22.070312 59.585938 C 22.070312 58.976562 22.5625 58.484375 23.171875 58.484375 L 40.828125 58.484375 C 41.4375 58.484375 41.929688 58.976562 41.929688 59.585938 C 41.929688 60.195312 41.4375 60.691406 40.828125 60.691406 Z M 40.828125 60.691406 "/>
<path style=" stroke:none;fill-rule:nonzero;fill:rgb(94.117647%,76.862745%,9.803922%);fill-opacity:1;" d="M 32 22.070312 C 32 22.679688 31.507812 23.171875 30.898438 23.171875 L 25.378906 23.171875 C 24.964844 23.175781 24.582031 22.9375 24.398438 22.566406 L 22.488281 18.757812 L 18.757812 18.757812 L 19.121094 16.550781 L 23.171875 16.550781 C 23.589844 16.550781 23.96875 16.785156 24.15625 17.160156 L 26.0625 20.964844 L 30.898438 20.964844 C 31.507812 20.964844 32 21.460938 32 22.070312 Z M 32 22.070312 "/>
<path style=" stroke:none;fill-rule:nonzero;fill:rgb(94.117647%,76.862745%,9.803922%);fill-opacity:1;" d="M 39.722656 7.722656 C 39.722656 8.332031 39.230469 8.828125 38.621094 8.828125 L 34.804688 8.828125 L 32.914062 11.640625 C 32.710938 11.949219 32.367188 12.136719 32 12.136719 L 27.585938 12.136719 L 27.144531 9.929688 L 31.402344 9.929688 L 33.292969 7.117188 C 33.492188 6.808594 33.835938 6.621094 34.207031 6.621094 L 38.621094 6.621094 C 39.230469 6.621094 39.722656 7.113281 39.722656 7.722656 Z M 39.722656 7.722656 "/>
<path style=" stroke:none;fill-rule:nonzero;fill:rgb(89.803922%,49.411765%,14.509804%);fill-opacity:1;" d="M 30.773438 40.6875 C 30.730469 40.6875 30.6875 40.683594 30.644531 40.679688 C 30.039062 40.609375 29.605469 40.0625 29.675781 39.457031 C 30.136719 35.460938 29.289062 32.984375 27.09375 31.882812 C 26.738281 31.707031 26.507812 31.355469 26.484375 30.960938 C 26.460938 30.570312 26.648438 30.191406 26.976562 29.976562 C 27.308594 29.757812 27.726562 29.734375 28.082031 29.910156 C 31.164062 31.453125 32.4375 34.75 31.867188 39.707031 C 31.800781 40.265625 31.332031 40.683594 30.773438 40.6875 Z M 30.773438 40.6875 "/>
<path style=" stroke:none;fill-rule:nonzero;fill:rgb(89.803922%,49.411765%,14.509804%);fill-opacity:1;" d="M 33.242188 40.808594 C 32.683594 40.808594 32.214844 40.394531 32.148438 39.839844 C 31.539062 34.804688 32.808594 31.464844 35.917969 29.90625 C 36.464844 29.632812 37.128906 29.851562 37.402344 30.398438 C 37.679688 30.945312 37.457031 31.609375 36.914062 31.882812 C 34.691406 32.988281 33.851562 35.507812 34.347656 39.574219 C 34.382812 39.863281 34.300781 40.15625 34.121094 40.386719 C 33.9375 40.617188 33.671875 40.765625 33.382812 40.800781 C 33.332031 40.808594 33.289062 40.808594 33.242188 40.808594 Z M 33.242188 40.808594 "/>
<path style=" stroke:none;fill-rule:nonzero;fill:rgb(58.431373%,64.705882%,64.705882%);fill-opacity:1;" d="M 29.792969 37.515625 L 34.207031 37.515625 C 34.816406 37.515625 35.308594 38.011719 35.308594 38.621094 L 35.308594 50.757812 L 28.691406 50.757812 L 28.691406 38.621094 C 28.691406 38.011719 29.183594 37.515625 29.792969 37.515625 Z M 29.792969 37.515625 "/>
</g>
</svg>
