<?xml version="1.0" encoding="UTF-8"?>
<svg xmlns="http://www.w3.org/2000/svg" xmlns:xlink="http://www.w3.org/1999/xlink" width="64pt" height="64pt" viewBox="0 0 64 64" version="1.1">
<g id="surface1">
<path style=" stroke:none;fill-rule:nonzero;fill:rgb(51.764706%,47.45098%,76.078431%);fill-opacity:1;" d="M 52.886719 44.667969 L 52.886719 46.855469 C 52.886719 47.933594 53.714844 48.8125 54.734375 48.8125 L 56.515625 48.8125 C 57.535156 48.8125 58.359375 47.933594 58.359375 46.855469 L 58.359375 44.667969 Z M 52.886719 44.667969 "/>
<path style=" stroke:none;fill-rule:nonzero;fill:rgb(51.764706%,47.45098%,76.078431%);fill-opacity:1;" d="M 7.289062 44.667969 L 7.289062 46.855469 C 7.289062 47.933594 8.113281 48.8125 9.132812 48.8125 L 10.917969 48.8125 C 11.9375 48.8125 12.761719 47.933594 12.761719 46.855469 L 12.761719 44.667969 Z M 7.289062 44.667969 "/>
<path style=" stroke:none;fill-rule:nonzero;fill:rgb(38.823529%,32.54902%,69.803922%);fill-opacity:1;" d="M 55.625 46.855469 L 55.625 44.667969 L 52.886719 44.667969 L 52.886719 46.855469 C 52.886719 47.933594 53.714844 48.8125 54.734375 48.8125 L 56.515625 48.8125 C 56.679688 48.8125 56.839844 48.785156 56.992188 48.742188 C 56.203125 48.519531 55.625 47.757812 55.625 46.855469 Z M 55.625 46.855469 "/>
<path style=" stroke:none;fill-rule:nonzero;fill:rgb(38.823529%,32.54902%,69.803922%);fill-opacity:1;" d="M 10.023438 46.855469 L 10.023438 44.667969 L 7.289062 44.667969 L 7.289062 46.855469 C 7.289062 47.933594 8.113281 48.8125 9.132812 48.8125 L 10.917969 48.8125 C 11.082031 48.8125 11.242188 48.785156 11.394531 48.742188 C 10.605469 48.519531 10.023438 47.757812 10.023438 46.855469 Z M 10.023438 46.855469 "/>
<path style=" stroke:none;fill-rule:nonzero;fill:rgb(69.411765%,85.882353%,98.823529%);fill-opacity:1;" d="M 58.527344 19.0625 C 56.519531 16.6875 53.601562 15.1875 50.347656 15.1875 L 15.300781 15.1875 C 12.050781 15.1875 9.128906 16.6875 7.125 19.0625 Z M 58.527344 19.0625 "/>
<path style=" stroke:none;fill-rule:nonzero;fill:rgb(54.509804%,79.215686%,100%);fill-opacity:1;" d="M 25.113281 15.1875 L 15.300781 15.1875 C 12.050781 15.1875 9.128906 16.6875 7.125 19.0625 L 16.933594 19.0625 C 18.9375 16.6875 21.859375 15.1875 25.113281 15.1875 Z M 25.113281 15.1875 "/>
<path style=" stroke:none;fill-rule:nonzero;fill:rgb(69.411765%,85.882353%,98.823529%);fill-opacity:1;" d="M 62.710938 38.71875 L 3.085938 38.71875 L 1.648438 39.769531 C 1.648438 42.605469 3.945312 44.902344 6.78125 44.902344 L 58.867188 44.902344 C 61.703125 44.902344 64 42.605469 64 39.769531 Z M 62.710938 38.71875 "/>
<path style=" stroke:none;fill-rule:nonzero;fill:rgb(54.509804%,79.215686%,100%);fill-opacity:1;" d="M 10.023438 39.769531 L 11.460938 38.71875 L 3.085938 38.71875 L 1.648438 39.769531 C 1.648438 42.605469 3.945312 44.902344 6.78125 44.902344 L 15.15625 44.902344 C 12.324219 44.902344 10.023438 42.605469 10.023438 39.769531 Z M 10.023438 39.769531 "/>
<path style=" stroke:none;fill-rule:nonzero;fill:rgb(87.45098%,92.156863%,98.039216%);fill-opacity:1;" d="M 60.234375 18.863281 C 59.890625 18.863281 7.5625 18.863281 5.417969 18.863281 C 3.335938 18.863281 1.648438 20.546875 1.648438 22.628906 L 1.648438 39.769531 L 64 39.769531 L 64 22.628906 C 64 20.546875 62.3125 18.863281 60.234375 18.863281 Z M 60.234375 18.863281 "/>
<path style=" stroke:none;fill-rule:nonzero;fill:rgb(69.411765%,85.882353%,98.823529%);fill-opacity:1;" d="M 13.792969 18.863281 C 9.140625 18.863281 5.917969 18.863281 5.417969 18.863281 C 3.335938 18.863281 1.648438 20.546875 1.648438 22.628906 L 1.648438 39.769531 L 10.023438 39.769531 L 10.023438 22.628906 C 10.023438 20.546875 11.710938 18.863281 13.792969 18.863281 Z M 13.792969 18.863281 "/>
<path style=" stroke:none;fill-rule:nonzero;fill:rgb(51.764706%,47.45098%,76.078431%);fill-opacity:1;" d="M 56.960938 31.882812 C 56.960938 39.074219 51.128906 44.902344 43.941406 44.902344 C 36.75 44.902344 30.917969 39.074219 30.917969 31.882812 C 30.917969 24.691406 36.75 18.863281 43.941406 18.863281 C 51.128906 18.863281 56.960938 24.691406 56.960938 31.882812 Z M 56.960938 31.882812 "/>
<path style=" stroke:none;fill-rule:nonzero;fill:rgb(43.137255%,37.647059%,72.156863%);fill-opacity:1;" d="M 36.078125 31.882812 C 36.078125 25.574219 40.5625 20.316406 46.519531 19.117188 C 45.6875 18.949219 44.824219 18.863281 43.941406 18.863281 C 36.75 18.863281 30.917969 24.691406 30.917969 31.882812 C 30.917969 39.074219 36.75 44.902344 43.941406 44.902344 C 44.824219 44.902344 45.6875 44.8125 46.519531 44.648438 C 40.5625 43.449219 36.078125 38.191406 36.078125 31.882812 Z M 36.078125 31.882812 "/>
<path style=" stroke:none;fill-rule:nonzero;fill:rgb(54.509804%,79.215686%,100%);fill-opacity:1;" d="M 52.722656 31.882812 C 52.722656 36.734375 48.789062 40.664062 43.941406 40.664062 C 39.089844 40.664062 35.15625 36.734375 35.15625 31.882812 C 35.15625 27.03125 39.089844 23.101562 43.941406 23.101562 C 48.789062 23.101562 52.722656 27.03125 52.722656 31.882812 Z M 52.722656 31.882812 "/>
<path style=" stroke:none;fill-rule:nonzero;fill:rgb(36.078431%,70.196078%,97.254902%);fill-opacity:1;" d="M 40.316406 31.882812 C 40.316406 27.9375 42.933594 24.59375 46.519531 23.488281 C 45.703125 23.234375 44.835938 23.101562 43.941406 23.101562 C 39.097656 23.101562 35.15625 27.039062 35.15625 31.882812 C 35.15625 36.726562 39.097656 40.664062 43.941406 40.664062 C 44.835938 40.664062 45.703125 40.527344 46.519531 40.277344 C 42.933594 39.171875 40.316406 35.828125 40.316406 31.882812 Z M 40.316406 31.882812 "/>
<path style=" stroke:none;fill-rule:nonzero;fill:rgb(36.078431%,70.196078%,97.254902%);fill-opacity:1;" d="M 47.660156 31.882812 C 47.660156 33.9375 45.996094 35.601562 43.941406 35.601562 C 41.886719 35.601562 40.21875 33.9375 40.21875 31.882812 C 40.21875 29.828125 41.886719 28.164062 43.941406 28.164062 C 45.996094 28.164062 47.660156 29.828125 47.660156 31.882812 Z M 47.660156 31.882812 "/>
<path style=" stroke:none;fill-rule:nonzero;fill:rgb(18.431373%,63.529412%,96.470588%);fill-opacity:1;" d="M 43.941406 31.882812 C 43.941406 30.507812 44.6875 29.308594 45.800781 28.664062 C 45.253906 28.34375 44.617188 28.164062 43.941406 28.164062 C 41.890625 28.164062 40.21875 29.832031 40.21875 31.882812 C 40.21875 33.933594 41.886719 35.601562 43.941406 35.601562 C 44.617188 35.601562 45.253906 35.417969 45.800781 35.101562 C 44.6875 34.457031 43.941406 33.257812 43.941406 31.882812 Z M 43.941406 31.882812 "/>
<path style=" stroke:none;fill-rule:nonzero;fill:rgb(54.509804%,79.215686%,100%);fill-opacity:1;" d="M 12.761719 24.261719 L 0.953125 24.261719 C 0.425781 24.261719 0 23.835938 0 23.3125 C 0 22.785156 0.425781 22.359375 0.953125 22.359375 L 12.761719 22.359375 C 13.289062 22.359375 13.714844 22.785156 13.714844 23.3125 C 13.714844 23.835938 13.289062 24.261719 12.761719 24.261719 Z M 12.761719 24.261719 "/>
<path style=" stroke:none;fill-rule:nonzero;fill:rgb(54.509804%,79.215686%,100%);fill-opacity:1;" d="M 12.761719 28.265625 L 0.953125 28.265625 C 0.425781 28.265625 0 27.839844 0 27.316406 C 0 26.789062 0.425781 26.363281 0.953125 26.363281 L 12.761719 26.363281 C 13.289062 26.363281 13.714844 26.789062 13.714844 27.316406 C 13.714844 27.839844 13.289062 28.265625 12.761719 28.265625 Z M 12.761719 28.265625 "/>
<path style=" stroke:none;fill-rule:nonzero;fill:rgb(54.509804%,79.215686%,100%);fill-opacity:1;" d="M 12.761719 32.269531 L 0.953125 32.269531 C 0.425781 32.269531 0 31.84375 0 31.316406 C 0 30.792969 0.425781 30.367188 0.953125 30.367188 L 12.761719 30.367188 C 13.289062 30.367188 13.714844 30.792969 13.714844 31.316406 C 13.714844 31.84375 13.289062 32.269531 12.761719 32.269531 Z M 12.761719 32.269531 "/>
<path style=" stroke:none;fill-rule:nonzero;fill:rgb(54.509804%,79.215686%,100%);fill-opacity:1;" d="M 12.761719 36.269531 L 0.953125 36.269531 C 0.425781 36.269531 0 35.84375 0 35.320312 C 0 34.792969 0.425781 34.367188 0.953125 34.367188 L 12.761719 34.367188 C 13.289062 34.367188 13.714844 34.792969 13.714844 35.320312 C 13.714844 35.84375 13.289062 36.269531 12.761719 36.269531 Z M 12.761719 36.269531 "/>
</g>
</svg>
